PathFileType	3	(X/Y/Z)	C:\Users\koon_\Desktop\
DataRate	CameraRate	NumFrames	NumMarkers	Units	OrigDataRate	OrigDataStartFrame	OrigNumFrames
100.0	100.0	10	27	mm	100.0	1681	4482	
Frame#	Time	get:LFHD			get:RFHD			get:LBHD			get:RBHD			get:C7			get:T10			get:CLAV			get:STRN			get:RBAK			get:LSHO			get:LUPA			get:LELB			get:LFRA			get:LWRA			get:LWRB			get:LFIN			get:RSHO			get:RUPA			get:RELB			get:RFRA			get:RWRA			get:RWRB			get:RFIN			get:LASI			get:RASI			get:LPSI			get:RPSI			
		X1	Y1	Z1	X2	Y2	Z2	X3	Y3	Z3	X4	Y4	Z4	X5	Y5	Z5	X6	Y6	Z6	X7	Y7	Z7	X8	Y8	Z8	X9	Y9	Z9	X10	Y10	Z10	X11	Y11	Z11	X12	Y12	Z12	X13	Y13	Z13	X14	Y14	Z14	X15	Y15	Z15	X16	Y16	Z16	X17	Y17	Z17	X18	Y18	Z18	X19	Y19	Z19	X20	Y20	Z20	X21	Y21	Z21	X22	Y22	Z22	X23	Y23	Z23	X24	Y24	Z24	X25	Y25	Z25	X26	Y26	Z26	X27	Y27	Z27	
1681	16.8	86.251648	1575.2004	-85.542633	-70.122162	1564.1558	-84.698555	80.912766	1566.0231	-210.38454	-45.315872	1568.0474	-229.71907	6.1979651	1375.9188	-236.83208	5.7551942	1125.5038	-262.8967	13.108277	1305.8367	-47.995819	29.357132	1120.6682	-3.0104105	-92.00563	1313.1282	-245.05997	135.96457	1391.9639	-148.56436	202.97797	1367.5479	-51.022015	217.41713	1332.2672	112.09832	106.97846	1357.4781	42.68483	3.1518362	1368.3466	14.561259	8.0837488	1394.5801	76.356567	-77.129288	1406.3787	20.415344	-117.29544	1386.755	-126.89142	-198.353	1320.7614	38.906155	-244.53256	1271.5537	125.00517	-137.68658	1263.7375	150.64589	-28.301229	1193.7184	229.39568	-63.630043	1222.9253	285.79514	31.189533	1210.7164	285.90604	145.88333	929.8183	-61.211269	-132.49557	917.19336	-52.96217	55.530754	957.11444	-259.8945	-54.51458	947.16638	-257.19916
1682	16.81	86.40686	1574.8804	-85.206367	-69.937645	1564.2581	-84.41819	81.167618	1565.9193	-209.99289	-45.201168	1568.0654	-229.29124	6.1563697	1375.8525	-236.81801	6.1492529	1125.3823	-262.95703	12.691463	1305.2937	-47.80714	29.238894	1119.8086	-2.0316789	-91.939407	1312.9064	-245.26263	135.71483	1391.9414	-148.37097	202.6053	1368.0944	-50.827431	217.54723	1333.0951	111.74689	106.4421	1358.4659	43.872093	3.5761988	1368.5887	17.046782	7.9616094	1396.0347	78.551163	-77.976982	1407.4863	23.470013	-117.87973	1386.2783	-126.58427	-199.45351	1317.3904	38.48307	-245.88786	1266.7838	123.75237	-138.75662	1258.5372	148.1937	-28.67696	1186.3206	224.3916	-63.244873	1215.2958	281.48941	31.729877	1203.2458	280.39319	145.75247	929.78674	-60.706482	-132.65898	917.17322	-52.967377	55.703747	957.05658	-259.66324	-54.35017	947.10571	-257.14288
1683	16.82	86.638466	1574.577	-84.788521	-69.745689	1564.338	-84.059242	81.391113	1565.8491	-209.58551	-44.992771	1568.2329	-228.84781	6.1519642	1375.7517	-236.75119	6.4568896	1125.2924	-262.93332	11.638652	1304.8884	-47.890373	28.11817	1119.4203	-2.0310802	-91.79818	1313.1683	-246.48628	135.36372	1391.8076	-148.40782	202.35588	1368.4237	-50.692852	217.79681	1334.1251	111.94084	105.85784	1359.205	45.336361	3.9322636	1368.3854	19.961952	7.7711725	1397.0435	81.17543	-78.886681	1408.2955	27.006006	-118.51758	1385.6447	-126.19766	-200.43924	1314.0858	37.98304	-247.37398	1262.098	122.30312	-139.9924	1253.5826	145.3719	-28.885441	1179.3075	219.17625	-62.692448	1208.0514	276.97244	32.812283	1196.0366	274.24023	145.61237	929.75372	-60.263443	-132.80377	917.14838	-52.92569	55.926453	956.99664	-259.42014	-54.162643	947.07001	-257.14127
1684	16.83	86.88842	1574.2596	-84.336037	-69.574432	1564.3774	-83.736366	81.668312	1565.7581	-209.19101	-44.603508	1568.7212	-228.58971	6.1223207	1375.7256	-236.74748	6.7394991	1125.1128	-262.81979	11.100658	1304.6471	-48.044037	27.688478	1119.2714	-2.0529568	-91.708984	1312.9614	-246.67722	135.08228	1391.6414	-148.44391	202.12431	1368.676	-50.524796	217.92621	1334.8	112.16542	105.21876	1359.766	47.075474	4.1890926	1367.7723	23.319527	7.4815001	1397.6423	84.242088	-79.726372	1408.8668	31.170242	-119.09633	1384.9365	-125.90601	-201.53932	1310.65	37.140327	-248.92633	1257.5588	120.77232	-141.19533	1248.6813	142.66475	-28.974945	1172.6763	213.62077	-62.021046	1201.1888	272.11533	33.356785	1189.1091	267.60956	145.4649	929.70404	-59.84309	-132.96434	917.10168	-52.948238	56.132618	956.91534	-259.09427	-53.971546	947.03949	-257.13889
1685	16.84	87.181068	1573.9187	-83.832489	-69.358597	1564.3929	-83.307587	81.910858	1565.6569	-208.7507	-44.320862	1568.9623	-228.21252	6.0778999	1375.662	-236.77885	6.9921546	1124.9047	-262.74368	10.506453	1304.3414	-48.223907	27.177475	1119.0345	-2.106142	-91.583649	1312.7051	-246.85574	135.01364	1391.5133	-148.25606	202.03223	1368.7971	-50.369217	218.08322	1335.3101	112.38549	104.40807	1360.1536	49.083565	4.4519844	1366.7994	27.151766	7.1978917	1397.8817	87.783401	-80.594948	1409.1924	35.783413	-119.60601	1384.1593	-125.8054	-202.75938	1307.3142	36.013226	-250.54997	1253.2158	119.15032	-142.52367	1244.0391	139.634	-28.940773	1166.4796	207.67131	-61.225971	1194.7606	266.86423	34.042946	1182.574	260.42279	145.33759	929.6839	-59.491882	-133.09016	917.07922	-52.921684	56.332767	956.83026	-258.80527	-53.791241	946.99823	-257.06412
1686	16.85	87.407333	1573.5416	-83.36396	-69.127563	1564.3536	-82.893349	82.19371	1565.5557	-208.31914	-44.06041	1569.1639	-227.74857	6.0064363	1375.585	-236.76657	7.2881422	1124.6687	-262.78448	9.7739058	1304.067	-48.462555	26.540941	1118.9377	-2.2521775	-91.526543	1312.3866	-247.11697	134.99382	1391.3625	-148.07666	202.02856	1368.8534	-50.185799	218.35403	1335.6207	112.67935	103.62726	1360.3104	51.323582	4.7620802	1365.4912	31.282465	6.9614849	1397.786	91.623177	-81.591225	1409.252	40.962452	-120.07548	1383.2086	-126.35	-204.04182	1304.2097	35.361324	-252.108	1249.0165	117.56255	-143.93413	1239.5665	136.23328	-28.704445	1160.7742	201.46468	-60.228741	1188.8237	261.35599	34.977371	1176.6222	253.00798	145.23271	929.65271	-59.080582	-133.19414	917.07343	-52.890408	56.550503	956.78247	-258.5448	-53.613804	946.95551	-257.03598
1687	16.86	87.614418	1573.1204	-82.917282	-68.889786	1564.3235	-82.485306	82.49472	1565.3862	-207.78064	-43.791283	1569.3407	-227.209	5.9258022	1375.4121	-236.73044	7.5213943	1124.3729	-262.67557	9.1317501	1303.6635	-48.598965	25.987644	1118.6217	-2.2744517	-91.430611	1312.0023	-247.39085	134.97484	1391.2119	-147.83018	202.08218	1368.7617	-49.945644	218.55966	1335.5569	113.08874	102.82368	1360.3179	53.813534	5.1222458	1363.9255	35.765408	6.7751474	1397.4324	95.815216	-82.541954	1409.0593	46.700665	-120.73145	1382.5259	-126.60782	-205.4319	1301.1512	34.43486	-253.54645	1244.9637	115.91036	-145.08365	1235.4435	132.79503	-28.29484	1155.4895	194.88873	-59.058228	1183.3077	255.47841	35.948673	1171.0883	245.36639	145.16824	929.61011	-58.705044	-133.30309	917.01617	-52.833076	56.773598	956.72632	-258.29904	-53.438591	946.87079	-256.92172
1688	16.87	87.996979	1572.6697	-82.375885	-68.641418	1564.3335	-81.996048	82.741348	1565.2572	-207.27745	-43.462318	1569.6278	-226.77065	5.8715205	1375.2646	-236.72729	7.8356166	1124.1438	-262.68094	8.5888834	1303.321	-48.798859	25.598087	1118.4009	-2.3384697	-91.363518	1311.6371	-247.66714	134.81853	1391.0756	-147.71429	202.09612	1368.5635	-49.67355	218.92311	1335.2631	113.45998	102.06004	1360.1896	56.452789	5.5229235	1362.1831	40.574326	6.6293259	1396.9021	100.33321	-83.595627	1408.561	52.794891	-121.42084	1381.9843	-126.82529	-206.93062	1298.2299	33.519333	-255.0535	1241.0165	114.14684	-146.26131	1231.5201	129.22198	-28.051392	1151.3623	187.81882	-57.817085	1178.3164	249.30959	36.7812	1166.1687	237.27209	145.09129	929.55371	-58.248859	-133.40907	916.9928	-52.804707	56.94836	956.66858	-258.06967	-53.303795	946.82947	-256.79541
1689	16.88	88.325394	1572.1527	-81.798386	-68.351944	1564.3312	-81.485565	82.972885	1565.1274	-206.81187	-43.17234	1569.9653	-226.22331	5.8117204	1375.2073	-236.92451	8.0518837	1123.8127	-262.47305	8.0138512	1303.0668	-49.061848	25.090416	1118.1978	-2.3908303	-91.411263	1311.2596	-247.87224	134.80051	1390.9167	-147.38539	202.21759	1368.2565	-49.31778	219.19411	1334.7837	113.87763	101.285	1359.8483	59.30872	6.0299444	1360.2745	45.645828	6.5898447	1396.2058	105.11381	-84.670082	1407.7622	59.271534	-122.0936	1381.3877	-127.08424	-208.39713	1295.4564	32.541416	-256.62079	1237.2821	112.39656	-147.48827	1227.8807	125.47155	-27.878736	1147.641	180.60144	-56.551079	1173.842	242.78938	37.292828	1161.7681	229.00253	145.02208	929.53839	-57.852634	-133.49927	916.94672	-52.737293	57.156906	956.59363	-257.85825	-53.329037	946.54095	-255.73102
1690	16.89	88.607475	1571.5824	-81.305908	-68.018608	1564.3801	-80.860558	83.247757	1565.0236	-206.26587	-43.056091	1570.1311	-225.41608	5.7632155	1375.1172	-236.96416	8.2486677	1123.5371	-262.31436	7.4916382	1302.7312	-49.267193	24.629734	1117.9443	-2.5560355	-91.352524	1311.0714	-248.19328	134.85413	1390.7063	-147.02995	202.33995	1367.8822	-48.948486	219.53722	1334.1138	114.39508	100.51631	1359.4329	62.236507	4.913928	1359.5592	50.493721	6.6109443	1395.2803	110.09982	-85.695496	1406.7002	66.247406	-122.69518	1380.7572	-127.34054	-209.7953	1292.8126	31.521219	-258.30063	1233.7231	110.54955	-148.97287	1224.5129	121.51099	-28.977741	1144.6215	173.6447	-55.309479	1169.8708	236.10454	38.388962	1157.8539	219.69836	144.91585	929.47729	-57.483074	-133.59874	916.88257	-52.630337	57.333733	956.54126	-257.67874	-53.207481	946.47034	-255.59351
